%
M48
M72
T01C0.0150
T02C0.0236
T03C0.0240
T04C0.0315
T05C0.0320
T06C0.0394
T07C0.0400
T08C0.0440
T09C0.0470
T10C0.0512
T11C0.0551
T12C0.0790
T13C0.1050
T14C0.1260
%
T01
X12160Y17125
X13660Y17125
X17160Y11625
X26160Y22125
X23160Y25625
X25160Y28125
X22660Y30625
X20160Y33625
X17660Y34125
X17160Y30625
X20160Y26625
X12560Y26325
X12560Y25925
X12560Y25525
X12660Y24525
X12660Y24125
X12660Y23725
X12560Y38725
X12560Y39125
X12560Y39525
X12560Y40525
X12560Y40925
X12560Y41325
X15160Y43125
X17660Y45625
X20160Y46625
X23160Y46125
X23660Y48625
X26660Y52425
X27460Y52425
X27160Y50625
X27760Y47525
X27760Y47125
X27760Y46725
X27760Y45725
X27760Y45325
X27760Y44925
X25160Y43125
X20160Y39625
X17660Y39625
X15660Y49625
X13660Y57625
X11560Y60325
X10960Y60325
X10360Y60325
X9760Y60325
X8160Y50625
X26060Y56925
X26060Y57425
X26060Y57925
X28760Y60325
X29360Y60325
X29960Y60325
X30560Y60325
X36160Y57125
X33160Y50625
X35660Y44125
X43160Y43125
X46660Y37625
X43660Y35125
X39160Y35125
X35660Y33625
X40160Y26625
X38960Y26325
X38960Y24925
X37160Y24625
X37660Y22625
X39960Y19525
X41260Y17325
X41960Y17825
X44560Y15925
X41960Y14925
X41960Y14325
X38760Y16125
X38060Y13025
X31460Y10625
X30660Y12125
X28860Y12225
X29960Y14325
X34660Y24625
X41560Y21525
X42760Y21525
X44660Y24125
X47260Y23025
X48660Y22625
X46160Y26625
X53160Y37625
X54160Y40625
X52960Y47225
X52960Y47825
X52960Y48425
X52960Y49025
X53160Y52125
X54660Y55125
X49660Y58125
X44660Y56625
X44560Y51925
X43960Y51925
X45160Y51925
X45760Y51925
X27760Y32525
X27760Y32125
X27760Y31725
X27760Y30725
X27760Y30325
X27760Y29925
X46660Y10125
T02
X45129Y12225
X45160Y6625
X42860Y6825
X37460Y6825
X36160Y6625
X34160Y6625
X32160Y8025
X28260Y8025
X26160Y6625
X24160Y6625
X22060Y8025
X18160Y8025
X14160Y6625
X20160Y17325
X25760Y16125
X26260Y16125
X26760Y16125
X29929Y25125
X33160Y25625
X34160Y25625
X35629Y27125
X32560Y30025
X31360Y30025
X30960Y30625
X33160Y32525
X34160Y32525
X29213Y34125
X26829Y33325
X28360Y29825
X29513Y36725
X29929Y38325
X28360Y44825
X30960Y45625
X31360Y45025
X32560Y45025
X27813Y48325
X28229Y49125
X28660Y54325
X29660Y54325
X30660Y54325
X33660Y55225
X34160Y55225
X34660Y55225
X34160Y64625
X30160Y64625
X26160Y64625
X20660Y52625
X20060Y52625
X19360Y52625
X11660Y54225
X10660Y54225
X9660Y54225
X6660Y55225
X6160Y55225
X5660Y55225
X1160Y56625
X1160Y52625
X1160Y48625
X1160Y44625
X1160Y40625
X1160Y36625
X1160Y32625
X1160Y28625
X4191Y29125
X6960Y28625
X6960Y29625
X7760Y26225
X8960Y26225
X9360Y25425
X11960Y26425
X12507Y22925
X12091Y22125
X10391Y31125
X10807Y34825
X12091Y37125
X12507Y37925
X11960Y41425
X9360Y40425
X8960Y41225
X7760Y41225
X10391Y46125
X1160Y60625
X6160Y64625
X10160Y64625
X14160Y64625
X38160Y64625
X42160Y64625
X46160Y64625
X50160Y64625
X54160Y64625
X59160Y60625
X59160Y56625
X59160Y52625
X59160Y48625
X59160Y44625
X59160Y40625
X59160Y36625
X59160Y32625
X59160Y28625
X59160Y24625
X59160Y20625
X59160Y16625
X59160Y12625
X51060Y15525
X50460Y15525
X49860Y15525
X46860Y20525
X44760Y20025
X44760Y19525
X44191Y22225
X37891Y15725
X1160Y16625
X1160Y13625
X1160Y20625
X1160Y24625
T03
X46860Y8225
X47860Y8225
X48860Y8225
T04
X43160Y12225
X39860Y15725
X46160Y22225
X33660Y27125
X27960Y25125
X24860Y33325
X26260Y34125
X26560Y36725
X27960Y38325
X24860Y48325
X26260Y49125
X15460Y37925
X14060Y37125
X13760Y34825
X12360Y31125
X6160Y29125
X14060Y22125
X15460Y22925
X12360Y46125
T05
X35660Y37125
X36660Y37125
X36660Y31625
X35660Y31625
X35660Y19625
X36660Y19625
T06
X39160Y44625
X40160Y44625
X41160Y44625
X42160Y44625
T07
X41160Y37125
X40160Y37125
X39160Y37125
X39160Y31625
X40160Y31625
X41160Y31625
X54660Y24625
X54660Y22125
X41660Y9225
X40660Y9225
X39260Y9225
X38260Y9225
X22910Y27125
X22910Y28125
X22910Y29125
X17410Y29125
X17410Y28125
X17410Y27125
X17410Y42125
X17410Y43125
X17410Y44125
X22910Y44125
X22910Y43125
X22910Y42125
T08
X48160Y39125
X52160Y39125
T09
X52176Y8125
X54144Y8125
T10
X40160Y43775
T11
X54660Y19275
X54660Y11975
T12
X55660Y30625
X51660Y30625
T13
X20160Y21660
X20160Y49590
T14
X2160Y7625
X2160Y63625
X58160Y63625
X58160Y7625
M30
