G75*
%MOIN*%
%OFA0B0*%
%FSLAX24Y24*%
%IPPOS*%
%LPD*%
%AMOC8*
5,1,8,0,0,1.08239X$1,22.5*
%
%ADD10R,0.0236X0.0866*%
%ADD11R,0.0315X0.0354*%
%ADD12R,0.0709X0.0630*%
%ADD13R,0.0709X0.1260*%
%ADD14R,0.0669X0.0433*%
%ADD15R,0.0402X0.1000*%
%ADD16R,0.0433X0.0669*%
%ADD17R,0.1240X0.0866*%
%ADD18R,0.2169X0.0996*%
%ADD19R,0.0630X0.0710*%
%ADD20R,0.0272X0.0390*%
%ADD21R,0.0354X0.0591*%
%ADD22R,0.0591X0.0354*%
%ADD23R,0.0630X0.0709*%
%ADD24R,0.1299X0.0591*%
%ADD25R,0.1516X0.2165*%
%ADD26R,0.1339X0.0748*%
%ADD27R,0.0996X0.2169*%
%ADD28R,0.0630X0.1063*%
%ADD29R,0.2165X0.1516*%
D10*
X040460Y013601D03*
X040960Y013601D03*
X041460Y013601D03*
X041960Y013601D03*
X042460Y013601D03*
X042960Y013601D03*
X043460Y013601D03*
X043460Y015649D03*
X042960Y015649D03*
X042460Y015649D03*
X041960Y015649D03*
X041460Y015649D03*
X040960Y015649D03*
X040460Y015649D03*
D11*
X038034Y013731D03*
X037660Y014519D03*
X037286Y013731D03*
X044386Y021519D03*
X045134Y021519D03*
X044760Y020731D03*
X047086Y021519D03*
X047834Y021519D03*
X047460Y020731D03*
D12*
X023160Y023374D03*
X023160Y024476D03*
X017160Y031774D03*
X017160Y032876D03*
X023160Y038374D03*
X023160Y039476D03*
X017160Y046774D03*
X017160Y047876D03*
D13*
X015462Y047925D03*
X015462Y046125D03*
X013258Y046125D03*
X013258Y047925D03*
X013258Y040925D03*
X013258Y039125D03*
X015462Y039125D03*
X015462Y040925D03*
X015462Y032925D03*
X015462Y031125D03*
X013258Y031125D03*
X013258Y032925D03*
X013258Y025925D03*
X013258Y024125D03*
X015462Y024125D03*
X015462Y025925D03*
X024858Y025125D03*
X024858Y023325D03*
X027062Y023325D03*
X027062Y025125D03*
X027062Y030325D03*
X027062Y032125D03*
X024858Y032125D03*
X024858Y030325D03*
X024858Y038325D03*
X024858Y040125D03*
X027062Y040125D03*
X027062Y038325D03*
X027062Y045325D03*
X027062Y047125D03*
X024858Y047125D03*
X024858Y045325D03*
D14*
X029560Y044696D03*
X029560Y043554D03*
X031360Y043154D03*
X031360Y044296D03*
X032560Y044296D03*
X032560Y043154D03*
X029560Y029696D03*
X029560Y028554D03*
X031360Y028154D03*
X031360Y029296D03*
X032560Y029296D03*
X032560Y028154D03*
X010760Y027696D03*
X010760Y026554D03*
X008960Y026954D03*
X008960Y028096D03*
X007760Y028096D03*
X007760Y026954D03*
X010760Y041554D03*
X010760Y042696D03*
X008960Y043096D03*
X008960Y041954D03*
X007760Y041954D03*
X007760Y043096D03*
D15*
X013109Y044125D03*
X014011Y044125D03*
X026309Y042125D03*
X027211Y042125D03*
X027211Y027125D03*
X026309Y027125D03*
X014011Y029125D03*
X013109Y029125D03*
D16*
X008931Y029125D03*
X007789Y029125D03*
X007789Y044125D03*
X008931Y044125D03*
X031389Y042125D03*
X032531Y042125D03*
X032531Y027125D03*
X031389Y027125D03*
X039589Y058625D03*
X040731Y058625D03*
X040731Y060025D03*
X039589Y060025D03*
D17*
X050460Y021803D03*
X050460Y019047D03*
D18*
X044860Y052706D03*
X044860Y054544D03*
X029660Y057706D03*
X029660Y059544D03*
X010660Y059544D03*
X010660Y057706D03*
D19*
X043600Y041625D03*
X044720Y041625D03*
X044720Y032625D03*
X043600Y032625D03*
D20*
X030534Y013637D03*
X029786Y013637D03*
X029786Y012617D03*
X030160Y012617D03*
X030534Y012617D03*
D21*
X030166Y011125D03*
X030954Y011125D03*
X039966Y012225D03*
X040754Y012225D03*
X041566Y012225D03*
X042354Y012225D03*
X043366Y017225D03*
X044154Y017225D03*
X044966Y017225D03*
X045754Y017225D03*
X044154Y018725D03*
X043366Y018725D03*
X030354Y027125D03*
X029566Y027125D03*
X027154Y028525D03*
X026366Y028525D03*
X029566Y030725D03*
X030354Y030725D03*
X027654Y034125D03*
X026866Y034125D03*
X025654Y034125D03*
X024866Y034125D03*
X029566Y042125D03*
X030354Y042125D03*
X027154Y043525D03*
X026366Y043525D03*
X029566Y045725D03*
X030354Y045725D03*
X027654Y049125D03*
X026866Y049125D03*
X025654Y049125D03*
X024866Y049125D03*
X015454Y037125D03*
X014666Y037125D03*
X013454Y037125D03*
X012666Y037125D03*
X010754Y040525D03*
X009966Y040525D03*
X009966Y044125D03*
X010754Y044125D03*
X013166Y042725D03*
X013954Y042725D03*
X010754Y029125D03*
X009966Y029125D03*
X013166Y027725D03*
X013954Y027725D03*
X010754Y025525D03*
X009966Y025525D03*
X012666Y022125D03*
X013454Y022125D03*
X014666Y022125D03*
X015454Y022125D03*
D22*
X011960Y026931D03*
X011960Y027719D03*
X011960Y028331D03*
X011960Y029119D03*
X010760Y024519D03*
X010760Y023731D03*
X017160Y010019D03*
X017160Y009231D03*
X018660Y009231D03*
X018660Y010019D03*
X020160Y010019D03*
X020160Y009231D03*
X028860Y012731D03*
X028860Y013519D03*
X030160Y010119D03*
X030160Y009331D03*
X035660Y016231D03*
X035660Y017019D03*
X038760Y016631D03*
X038760Y017419D03*
X039960Y017419D03*
X039960Y016631D03*
X039960Y018231D03*
X039960Y019019D03*
X041560Y018731D03*
X041560Y019519D03*
X041560Y020231D03*
X041560Y021019D03*
X042760Y021019D03*
X042760Y020231D03*
X041960Y017319D03*
X041960Y016531D03*
X044560Y015319D03*
X044560Y014531D03*
X046160Y018331D03*
X046160Y019119D03*
X046160Y020431D03*
X046160Y021219D03*
X039160Y014419D03*
X039160Y013631D03*
X040560Y011219D03*
X040560Y010431D03*
X041760Y010431D03*
X041760Y011219D03*
X028360Y027131D03*
X028360Y027919D03*
X028360Y028531D03*
X028360Y029319D03*
X029560Y031731D03*
X029560Y032519D03*
X035660Y032731D03*
X035660Y033519D03*
X035660Y036731D03*
X035660Y037519D03*
X037760Y045831D03*
X037760Y046619D03*
X029560Y046731D03*
X029560Y047519D03*
X028360Y044319D03*
X028360Y043531D03*
X028360Y042919D03*
X028360Y042131D03*
X011960Y041931D03*
X011960Y042719D03*
X011960Y043331D03*
X011960Y044119D03*
X010760Y039519D03*
X010760Y038731D03*
D23*
X038609Y041625D03*
X039711Y041625D03*
X039711Y032625D03*
X038609Y032625D03*
D24*
X015770Y013125D03*
X015770Y014125D03*
X015770Y015125D03*
X015770Y016125D03*
X015770Y017125D03*
X015770Y018125D03*
X024550Y018125D03*
X024550Y017125D03*
X024550Y016125D03*
X024550Y015125D03*
X024550Y014125D03*
X024550Y013125D03*
X024550Y052625D03*
X024550Y053625D03*
X024550Y054625D03*
X024550Y055625D03*
X024550Y056625D03*
X024550Y057625D03*
X015770Y057625D03*
X015770Y056625D03*
X015770Y055625D03*
X015770Y054625D03*
X015770Y053625D03*
X015770Y052625D03*
D25*
X038201Y054825D03*
X042119Y054825D03*
X047501Y054825D03*
X051419Y054825D03*
D26*
X034160Y054393D03*
X034160Y052857D03*
X018660Y060357D03*
X018660Y061893D03*
X016160Y061893D03*
X016160Y060357D03*
X013660Y060357D03*
X013660Y061893D03*
X006160Y054393D03*
X006160Y052857D03*
D27*
X053741Y048125D03*
X055579Y048125D03*
D28*
X042111Y041625D03*
X041009Y041625D03*
X040809Y032625D03*
X041911Y032625D03*
D29*
X029660Y051666D03*
X029660Y055584D03*
X010660Y055584D03*
X010660Y051666D03*
M02*
