G75*
%MOIN*%
%OFA0B0*%
%FSLAX24Y24*%
%IPPOS*%
%LPD*%
%AMOC8*
5,1,8,0,0,1.08239X$1,22.5*
%
%ADD10C,0.0680*%
%ADD11C,0.0580*%
%ADD12R,0.1458X0.1852*%
%ADD13C,0.0830*%
%ADD14R,0.1890X0.1890*%
%ADD15C,0.1890*%
%ADD16R,0.2249X0.1076*%
%ADD17R,0.0671X0.0434*%
%ADD18R,0.1780X0.1780*%
%ADD19R,0.2380X0.2380*%
%ADD20C,0.1080*%
%ADD21C,0.0595*%
%ADD22R,0.0516X0.0516*%
%ADD23R,0.0789X0.1340*%
%ADD24C,0.0840*%
%ADD25R,0.0840X0.0840*%
%ADD26C,0.0592*%
%ADD27R,0.0680X0.0680*%
%ADD28C,0.0680*%
%ADD29C,0.0740*%
%ADD30C,0.0780*%
%ADD31R,0.0710X0.0710*%
%ADD32C,0.0785*%
%ADD33C,0.0476*%
%ADD34C,0.0390*%
D10*
X017110Y027125D02*
X017710Y027125D01*
X017710Y028125D02*
X017110Y028125D01*
X017110Y029125D02*
X017710Y029125D01*
X022610Y029125D02*
X023210Y029125D01*
X023210Y028125D02*
X022610Y028125D01*
X022610Y027125D02*
X023210Y027125D01*
X023210Y042125D02*
X022610Y042125D01*
X022610Y043125D02*
X023210Y043125D01*
X023210Y044125D02*
X022610Y044125D01*
X017710Y044125D02*
X017110Y044125D01*
X017110Y043125D02*
X017710Y043125D01*
X017710Y042125D02*
X017110Y042125D01*
X039160Y039925D02*
X039160Y039325D01*
X040160Y039325D02*
X040160Y039925D01*
X041160Y039925D02*
X041160Y039325D01*
X041160Y030925D02*
X041160Y030325D01*
X040160Y030325D02*
X040160Y030925D01*
X039160Y030925D02*
X039160Y030325D01*
X039260Y009525D02*
X039260Y008925D01*
X038260Y008925D02*
X038260Y009525D01*
X040660Y009525D02*
X040660Y008925D01*
X041660Y008925D02*
X041660Y009525D01*
D11*
X046160Y011125D03*
X047160Y011125D03*
X048160Y011125D03*
D12*
X041617Y006723D03*
X038703Y006723D03*
X031617Y006723D03*
X028703Y006723D03*
X021617Y006723D03*
X018703Y006723D03*
X018703Y064527D03*
X021617Y064527D03*
D13*
X054660Y027125D03*
X054660Y024625D03*
D14*
X055660Y033125D03*
D15*
X051660Y033125D03*
D16*
X023160Y051706D03*
X023160Y053544D03*
X016960Y053644D03*
X016960Y051806D03*
D17*
X020060Y053231D03*
X020060Y054019D03*
X016060Y044319D03*
X016060Y043531D03*
X016060Y042819D03*
X016060Y042031D03*
X024260Y041931D03*
X024260Y042719D03*
X024260Y043431D03*
X024260Y044219D03*
X024260Y029219D03*
X024260Y028431D03*
X024260Y027719D03*
X024260Y026931D03*
X020160Y018719D03*
X020160Y017931D03*
X016060Y027031D03*
X016060Y027819D03*
X016060Y028531D03*
X016060Y029319D03*
D18*
X020160Y021660D03*
X020160Y049590D03*
D19*
X002160Y007625D03*
X002160Y063625D03*
X058160Y063625D03*
X058160Y007625D03*
D20*
X055160Y014475D02*
X054160Y014475D01*
X054160Y021775D02*
X055160Y021775D01*
D21*
X046160Y022225D03*
X039860Y015725D03*
X043160Y012225D03*
X033660Y027125D03*
X027960Y025125D03*
X024860Y033325D03*
X026260Y034125D03*
X026560Y036225D03*
X027960Y038325D03*
X024860Y048325D03*
X026260Y049125D03*
X015460Y037925D03*
X014060Y037125D03*
X013760Y034825D03*
X012360Y031125D03*
X006160Y029125D03*
X014060Y022125D03*
X015460Y022925D03*
X012360Y046125D03*
D22*
X010391Y046125D03*
X012507Y037925D03*
X012091Y037125D03*
X010807Y034825D03*
X010391Y031125D03*
X004191Y029125D03*
X012507Y022925D03*
X012091Y022125D03*
X027813Y033325D03*
X028229Y034125D03*
X029513Y036225D03*
X029929Y038325D03*
X027813Y048325D03*
X028229Y049125D03*
X035629Y027125D03*
X029929Y025125D03*
X037891Y015725D03*
X044191Y022225D03*
X045129Y012225D03*
D23*
X027062Y030325D03*
X027062Y032125D03*
X024858Y032125D03*
X024858Y030325D03*
X015462Y025925D03*
X015462Y024125D03*
X013258Y024125D03*
X013258Y025925D03*
X013258Y039125D03*
X013258Y040925D03*
X015462Y040925D03*
X015462Y039125D03*
X024858Y045325D03*
X024858Y047125D03*
X027062Y047125D03*
X027062Y045325D03*
D24*
X039160Y047125D03*
X040160Y047125D03*
X041160Y047125D03*
D25*
X042160Y047125D03*
D26*
X040160Y046275D03*
D27*
X036660Y039625D03*
X036660Y030625D03*
X036660Y019625D03*
D28*
X035660Y019625D03*
X035660Y030625D03*
X035660Y039625D03*
D29*
X047030Y041625D02*
X047690Y041625D01*
X052030Y041625D02*
X052690Y041625D01*
D30*
X039560Y044125D03*
X039560Y035625D03*
D31*
X038560Y035625D03*
X038560Y044125D03*
D32*
X051676Y011478D02*
X051676Y010773D01*
X053644Y010773D02*
X053644Y011478D01*
D33*
X051060Y018025D03*
X050460Y018025D03*
X049860Y018025D03*
X046860Y020525D03*
X044760Y020025D03*
X044760Y019525D03*
X034160Y025625D03*
X033160Y025625D03*
X032560Y030025D03*
X031360Y030025D03*
X030960Y030625D03*
X033160Y032525D03*
X034160Y032525D03*
X028360Y029825D03*
X020160Y017325D03*
X025760Y016125D03*
X026260Y016125D03*
X026760Y016125D03*
X025660Y009625D03*
X028260Y008025D03*
X024160Y006625D03*
X022060Y008025D03*
X018160Y008025D03*
X013660Y006625D03*
X001160Y013625D03*
X001160Y016625D03*
X001160Y020625D03*
X001160Y024625D03*
X001160Y028625D03*
X001160Y032625D03*
X001160Y036625D03*
X001160Y040625D03*
X001160Y044625D03*
X001160Y048625D03*
X001160Y052625D03*
X001160Y056625D03*
X001160Y060625D03*
X005660Y055225D03*
X006160Y055225D03*
X006660Y055225D03*
X009660Y054225D03*
X010660Y054225D03*
X011660Y054225D03*
X019360Y052625D03*
X020060Y052625D03*
X020660Y052625D03*
X028660Y054325D03*
X029660Y054325D03*
X030660Y054325D03*
X033660Y055225D03*
X034160Y055225D03*
X034660Y055225D03*
X034160Y064625D03*
X030160Y064625D03*
X026160Y064625D03*
X014160Y064625D03*
X010160Y064625D03*
X006160Y064625D03*
X011960Y041425D03*
X009360Y040425D03*
X008960Y041225D03*
X007760Y041225D03*
X006960Y029625D03*
X006960Y028625D03*
X007760Y026225D03*
X008960Y026225D03*
X009360Y025425D03*
X011960Y026425D03*
X028360Y044825D03*
X030960Y045625D03*
X031360Y045025D03*
X032560Y045025D03*
X038160Y064625D03*
X042160Y064625D03*
X046160Y064625D03*
X050160Y064625D03*
X054160Y064625D03*
X059160Y060625D03*
X059160Y056625D03*
X059160Y052625D03*
X059160Y048625D03*
X059160Y044625D03*
X059160Y040625D03*
X059160Y036625D03*
X059160Y032525D03*
X059160Y028625D03*
X059160Y024625D03*
X059160Y020625D03*
X059160Y016625D03*
X059160Y012625D03*
X044160Y006625D03*
X042860Y006825D03*
X037460Y006825D03*
X034160Y006625D03*
X032160Y008025D03*
X033660Y010625D03*
D34*
X031460Y011125D03*
X030660Y012125D03*
X028860Y012225D03*
X029960Y014325D03*
X024960Y022025D03*
X023160Y025625D03*
X025360Y028125D03*
X027760Y029925D03*
X027760Y030325D03*
X027760Y030725D03*
X027760Y031725D03*
X027760Y032125D03*
X027760Y032525D03*
X032760Y031725D03*
X035660Y035125D03*
X040260Y033425D03*
X043660Y034125D03*
X046660Y040125D03*
X043160Y045625D03*
X043960Y051925D03*
X044560Y051925D03*
X045160Y051925D03*
X045760Y051925D03*
X044660Y056625D03*
X049660Y058125D03*
X054660Y055125D03*
X053160Y052125D03*
X052960Y049025D03*
X052960Y048425D03*
X052960Y047825D03*
X052960Y047225D03*
X054160Y043125D03*
X053160Y040125D03*
X046160Y026625D03*
X044660Y024125D03*
X047260Y023025D03*
X048660Y022625D03*
X044560Y015825D03*
X045260Y015325D03*
X041960Y014925D03*
X041960Y014325D03*
X041260Y017125D03*
X041260Y017625D03*
X039960Y019525D03*
X041560Y021525D03*
X042760Y021525D03*
X038960Y024925D03*
X038960Y026325D03*
X040160Y026625D03*
X037160Y024625D03*
X037660Y022625D03*
X034660Y024625D03*
X038760Y016125D03*
X038060Y013025D03*
X050060Y006425D03*
X022660Y010125D03*
X013660Y017125D03*
X012160Y017125D03*
X012660Y023725D03*
X012660Y024125D03*
X012660Y024525D03*
X012560Y025525D03*
X012560Y025925D03*
X012560Y026325D03*
X008160Y024525D03*
X017160Y030625D03*
X017660Y034125D03*
X020160Y033625D03*
X022660Y030625D03*
X020160Y026625D03*
X012560Y038725D03*
X012560Y039125D03*
X012560Y039525D03*
X012560Y040525D03*
X012560Y040925D03*
X012560Y041325D03*
X014960Y043125D03*
X017660Y045625D03*
X020160Y046625D03*
X023160Y046125D03*
X023660Y048625D03*
X026660Y052425D03*
X027160Y050625D03*
X027760Y047525D03*
X027760Y047125D03*
X027760Y046725D03*
X027760Y045725D03*
X027760Y045325D03*
X027760Y044925D03*
X025360Y043125D03*
X020160Y039625D03*
X017660Y039625D03*
X015660Y049625D03*
X008160Y050625D03*
X009760Y060325D03*
X010360Y060325D03*
X010960Y060325D03*
X011560Y060325D03*
X026060Y057925D03*
X026060Y057425D03*
X026060Y056925D03*
X028760Y060325D03*
X029360Y060325D03*
X029960Y060325D03*
X030560Y060325D03*
X036160Y057125D03*
X032560Y052425D03*
X033160Y050625D03*
X032260Y046825D03*
X035660Y046625D03*
X007660Y039525D03*
M02*
