G75*
%MOIN*%
%OFA0B0*%
%FSLAX24Y24*%
%IPPOS*%
%LPD*%
%AMOC8*
5,1,8,0,0,1.08239X$1,22.5*
%
%ADD10C,0.0080*%
%ADD11R,0.0193X0.0433*%
D10*
X013792Y023015D02*
X013898Y023015D01*
X013952Y023068D01*
X013952Y023175D02*
X013845Y023229D01*
X013792Y023229D01*
X013738Y023175D01*
X013738Y023068D01*
X013792Y023015D01*
X013952Y023175D02*
X013952Y023335D01*
X013738Y023335D01*
X013720Y023545D02*
X014990Y023545D01*
X015057Y023335D02*
X014896Y023335D01*
X014843Y023282D01*
X014843Y023175D01*
X014896Y023122D01*
X015057Y023122D01*
X015057Y023015D02*
X015057Y023335D01*
X014950Y023122D02*
X014843Y023015D01*
X014688Y023015D02*
X014475Y023229D01*
X014475Y023282D01*
X014528Y023335D01*
X014635Y023335D01*
X014688Y023282D01*
X014688Y023015D02*
X014475Y023015D01*
X014320Y023015D02*
X014106Y023229D01*
X014106Y023282D01*
X014160Y023335D01*
X014267Y023335D01*
X014320Y023282D01*
X014320Y023015D02*
X014106Y023015D01*
X013720Y024705D02*
X014990Y024705D01*
X014990Y025345D02*
X013720Y025345D01*
X013720Y026505D02*
X014990Y026505D01*
X015057Y026715D02*
X015057Y027035D01*
X014896Y027035D01*
X014843Y026982D01*
X014843Y026875D01*
X014896Y026822D01*
X015057Y026822D01*
X014950Y026822D02*
X014843Y026715D01*
X014688Y026715D02*
X014475Y026929D01*
X014475Y026982D01*
X014528Y027035D01*
X014635Y027035D01*
X014688Y026982D01*
X014688Y026715D02*
X014475Y026715D01*
X014320Y026715D02*
X014106Y026929D01*
X014106Y026982D01*
X014160Y027035D01*
X014267Y027035D01*
X014320Y026982D01*
X014320Y026715D02*
X014106Y026715D01*
X013952Y026715D02*
X013952Y026768D01*
X013738Y026982D01*
X013738Y027035D01*
X013952Y027035D01*
X015300Y027097D02*
X015514Y027310D01*
X015567Y027310D01*
X015620Y027257D01*
X015620Y027150D01*
X015567Y027097D01*
X015567Y026942D02*
X015620Y026889D01*
X015620Y026782D01*
X015567Y026728D01*
X015353Y026728D01*
X015300Y026782D01*
X015300Y026889D01*
X015353Y026942D01*
X015300Y027097D02*
X015300Y027310D01*
X015353Y027465D02*
X015567Y027679D01*
X015353Y027679D01*
X015300Y027625D01*
X015300Y027518D01*
X015353Y027465D01*
X015567Y027465D01*
X015620Y027518D01*
X015620Y027625D01*
X015567Y027679D01*
X015620Y027833D02*
X015620Y028047D01*
X015567Y028047D01*
X015353Y027833D01*
X015300Y027833D01*
X015300Y028228D02*
X015620Y028228D01*
X015620Y028389D01*
X015567Y028442D01*
X015460Y028442D01*
X015407Y028389D01*
X015407Y028228D01*
X015407Y028335D02*
X015300Y028442D01*
X015300Y028597D02*
X015514Y028810D01*
X015567Y028810D01*
X015620Y028757D01*
X015620Y028650D01*
X015567Y028597D01*
X015300Y028597D02*
X015300Y028810D01*
X015300Y028965D02*
X015300Y029179D01*
X015300Y029072D02*
X015620Y029072D01*
X015514Y028965D01*
X015800Y029055D02*
X015800Y028795D01*
X016320Y028795D02*
X016320Y029055D01*
X015620Y029333D02*
X015460Y029333D01*
X015514Y029440D01*
X015514Y029493D01*
X015460Y029547D01*
X015353Y029547D01*
X015300Y029493D01*
X015300Y029387D01*
X015353Y029333D01*
X015620Y029333D02*
X015620Y029547D01*
X015800Y027555D02*
X015800Y027295D01*
X016320Y027295D02*
X016320Y027555D01*
X024000Y027455D02*
X024000Y027195D01*
X024520Y027195D02*
X024520Y027455D01*
X024700Y027472D02*
X025020Y027472D01*
X024914Y027365D01*
X024914Y027210D02*
X024967Y027210D01*
X025020Y027157D01*
X025020Y027050D01*
X024967Y026997D01*
X024967Y026842D02*
X024860Y026842D01*
X024807Y026789D01*
X024807Y026628D01*
X024700Y026628D02*
X025020Y026628D01*
X025020Y026789D01*
X024967Y026842D01*
X024807Y026735D02*
X024700Y026842D01*
X024700Y026997D02*
X024914Y027210D01*
X024700Y027210D02*
X024700Y026997D01*
X024700Y027365D02*
X024700Y027579D01*
X024753Y027733D02*
X024700Y027787D01*
X024700Y027893D01*
X024753Y027947D01*
X024807Y027947D01*
X024860Y027893D01*
X024860Y027733D01*
X024753Y027733D01*
X024860Y027733D02*
X024967Y027840D01*
X025020Y027947D01*
X024967Y028128D02*
X024753Y028128D01*
X024700Y028182D01*
X024700Y028289D01*
X024753Y028342D01*
X024700Y028497D02*
X024700Y028710D01*
X024753Y028865D02*
X024700Y028918D01*
X024700Y029025D01*
X024753Y029079D01*
X024967Y029079D01*
X024753Y028865D01*
X024967Y028865D01*
X025020Y028918D01*
X025020Y029025D01*
X024967Y029079D01*
X024967Y029233D02*
X024914Y029233D01*
X024860Y029287D01*
X024860Y029393D01*
X024807Y029447D01*
X024753Y029447D01*
X024700Y029393D01*
X024700Y029287D01*
X024753Y029233D01*
X024807Y029233D01*
X024860Y029287D01*
X024860Y029393D02*
X024914Y029447D01*
X024967Y029447D01*
X025020Y029393D01*
X025020Y029287D01*
X024967Y029233D01*
X025338Y029268D02*
X025338Y029322D01*
X025392Y029375D01*
X025552Y029375D01*
X025552Y029268D01*
X025498Y029215D01*
X025392Y029215D01*
X025338Y029268D01*
X025445Y029482D02*
X025552Y029375D01*
X025445Y029482D02*
X025338Y029535D01*
X025330Y029745D02*
X026600Y029745D01*
X026657Y029535D02*
X026496Y029535D01*
X026443Y029482D01*
X026443Y029375D01*
X026496Y029322D01*
X026657Y029322D01*
X026657Y029215D02*
X026657Y029535D01*
X026550Y029322D02*
X026443Y029215D01*
X026288Y029215D02*
X026075Y029429D01*
X026075Y029482D01*
X026128Y029535D01*
X026235Y029535D01*
X026288Y029482D01*
X026288Y029215D02*
X026075Y029215D01*
X025920Y029215D02*
X025706Y029429D01*
X025706Y029482D01*
X025760Y029535D01*
X025867Y029535D01*
X025920Y029482D01*
X025920Y029215D02*
X025706Y029215D01*
X025020Y028657D02*
X025020Y028550D01*
X024967Y028497D01*
X024967Y028342D02*
X025020Y028289D01*
X025020Y028182D01*
X024967Y028128D01*
X024700Y028497D02*
X024914Y028710D01*
X024967Y028710D01*
X025020Y028657D01*
X024520Y028695D02*
X024520Y028955D01*
X024000Y028955D02*
X024000Y028695D01*
X025330Y030905D02*
X026600Y030905D01*
X026600Y031545D02*
X025330Y031545D01*
X025330Y032705D02*
X026600Y032705D01*
X026657Y032915D02*
X026657Y033235D01*
X026496Y033235D01*
X026443Y033182D01*
X026443Y033075D01*
X026496Y033022D01*
X026657Y033022D01*
X026550Y033022D02*
X026443Y032915D01*
X026288Y032915D02*
X026075Y033129D01*
X026075Y033182D01*
X026128Y033235D01*
X026235Y033235D01*
X026288Y033182D01*
X026288Y032915D02*
X026075Y032915D01*
X025920Y032915D02*
X025706Y033129D01*
X025706Y033182D01*
X025760Y033235D01*
X025867Y033235D01*
X025920Y033182D01*
X025920Y032915D02*
X025706Y032915D01*
X025552Y032968D02*
X025552Y033022D01*
X025498Y033075D01*
X025392Y033075D01*
X025338Y033022D01*
X025338Y032968D01*
X025392Y032915D01*
X025498Y032915D01*
X025552Y032968D01*
X025498Y033075D02*
X025552Y033129D01*
X025552Y033182D01*
X025498Y033235D01*
X025392Y033235D01*
X025338Y033182D01*
X025338Y033129D01*
X025392Y033075D01*
X025020Y041628D02*
X024700Y041628D01*
X024807Y041628D02*
X024807Y041789D01*
X024860Y041842D01*
X024967Y041842D01*
X025020Y041789D01*
X025020Y041628D01*
X024807Y041735D02*
X024700Y041842D01*
X024700Y041997D02*
X024700Y042210D01*
X024700Y042103D02*
X025020Y042103D01*
X024914Y041997D01*
X024914Y042365D02*
X025020Y042472D01*
X024700Y042472D01*
X024700Y042365D02*
X024700Y042579D01*
X024700Y042733D02*
X024753Y042733D01*
X024967Y042947D01*
X025020Y042947D01*
X025020Y042733D01*
X024967Y043128D02*
X024753Y043128D01*
X024700Y043182D01*
X024700Y043289D01*
X024753Y043342D01*
X024700Y043497D02*
X024700Y043710D01*
X024700Y043603D02*
X025020Y043603D01*
X024914Y043497D01*
X024967Y043342D02*
X025020Y043289D01*
X025020Y043182D01*
X024967Y043128D01*
X024520Y043695D02*
X024520Y043955D01*
X024700Y043972D02*
X025020Y043972D01*
X024914Y043865D01*
X024700Y043865D02*
X024700Y044079D01*
X024700Y044233D02*
X024700Y044447D01*
X024700Y044340D02*
X025020Y044340D01*
X024914Y044233D01*
X025338Y044482D02*
X025552Y044268D01*
X025552Y044215D01*
X025706Y044215D02*
X025920Y044215D01*
X025706Y044429D01*
X025706Y044482D01*
X025760Y044535D01*
X025867Y044535D01*
X025920Y044482D01*
X026182Y044535D02*
X026182Y044215D01*
X026288Y044215D02*
X026075Y044215D01*
X026288Y044429D02*
X026182Y044535D01*
X026443Y044482D02*
X026443Y044375D01*
X026496Y044322D01*
X026657Y044322D01*
X026657Y044215D02*
X026657Y044535D01*
X026496Y044535D01*
X026443Y044482D01*
X026550Y044322D02*
X026443Y044215D01*
X026600Y044745D02*
X025330Y044745D01*
X025338Y044535D02*
X025338Y044482D01*
X025338Y044535D02*
X025552Y044535D01*
X025330Y045905D02*
X026600Y045905D01*
X026600Y046545D02*
X025330Y046545D01*
X025330Y047705D02*
X026600Y047705D01*
X026657Y048015D02*
X026657Y048335D01*
X026496Y048335D01*
X026443Y048282D01*
X026443Y048175D01*
X026496Y048122D01*
X026657Y048122D01*
X026550Y048122D02*
X026443Y048015D01*
X026288Y048015D02*
X026075Y048015D01*
X026182Y048015D02*
X026182Y048335D01*
X026288Y048229D01*
X025920Y048282D02*
X025867Y048335D01*
X025760Y048335D01*
X025706Y048282D01*
X025706Y048229D01*
X025920Y048015D01*
X025706Y048015D01*
X025552Y048068D02*
X025498Y048015D01*
X025392Y048015D01*
X025338Y048068D01*
X025338Y048282D01*
X025392Y048335D01*
X025498Y048335D01*
X025552Y048282D01*
X025552Y048229D01*
X025498Y048175D01*
X025338Y048175D01*
X024144Y052349D02*
X024144Y052901D01*
X023971Y054265D02*
X023831Y054265D01*
X023761Y054335D01*
X023971Y054265D02*
X024041Y054335D01*
X024041Y054615D01*
X023971Y054685D01*
X023831Y054685D01*
X023761Y054615D01*
X023580Y054475D02*
X023300Y054475D01*
X023120Y054545D02*
X022980Y054685D01*
X022980Y054265D01*
X023120Y054265D02*
X022840Y054265D01*
X022660Y054265D02*
X022379Y054265D01*
X022519Y054265D02*
X022519Y054685D01*
X022660Y054545D01*
X023370Y054685D02*
X023580Y054475D01*
X023370Y054265D02*
X023370Y054685D01*
X022176Y052901D02*
X022176Y052349D01*
X020320Y053495D02*
X020320Y053755D01*
X019800Y053755D02*
X019800Y053495D01*
X019620Y053403D02*
X019300Y053403D01*
X019300Y053297D02*
X019300Y053510D01*
X019353Y053665D02*
X019300Y053718D01*
X019300Y053825D01*
X019353Y053879D01*
X019407Y053879D01*
X019460Y053825D01*
X019460Y053772D01*
X019460Y053825D02*
X019514Y053879D01*
X019567Y053879D01*
X019620Y053825D01*
X019620Y053718D01*
X019567Y053665D01*
X019620Y053403D02*
X019514Y053297D01*
X019567Y053142D02*
X019460Y053142D01*
X019407Y053089D01*
X019407Y052928D01*
X019300Y052928D02*
X019620Y052928D01*
X019620Y053089D01*
X019567Y053142D01*
X019407Y053035D02*
X019300Y053142D01*
X019300Y054033D02*
X019514Y054247D01*
X019567Y054247D01*
X019620Y054193D01*
X019620Y054087D01*
X019567Y054033D01*
X019300Y054033D02*
X019300Y054247D01*
X017841Y054435D02*
X017771Y054365D01*
X017631Y054365D01*
X017561Y054435D01*
X017380Y054575D02*
X017100Y054575D01*
X017170Y054365D02*
X017170Y054785D01*
X017380Y054575D01*
X017561Y054715D02*
X017631Y054785D01*
X017771Y054785D01*
X017841Y054715D01*
X017841Y054435D01*
X016920Y054435D02*
X016640Y054715D01*
X016640Y054435D01*
X016710Y054365D01*
X016850Y054365D01*
X016920Y054435D01*
X016920Y054715D01*
X016850Y054785D01*
X016710Y054785D01*
X016640Y054715D01*
X016460Y054715D02*
X016460Y054645D01*
X016390Y054575D01*
X016249Y054575D01*
X016179Y054505D01*
X016179Y054435D01*
X016249Y054365D01*
X016390Y054365D01*
X016460Y054435D01*
X016460Y054505D01*
X016390Y054575D01*
X016249Y054575D02*
X016179Y054645D01*
X016179Y054715D01*
X016249Y054785D01*
X016390Y054785D01*
X016460Y054715D01*
X015976Y053001D02*
X015976Y052449D01*
X017944Y052449D02*
X017944Y053001D01*
X015620Y044547D02*
X015567Y044440D01*
X015460Y044333D01*
X015460Y044493D01*
X015407Y044547D01*
X015353Y044547D01*
X015300Y044493D01*
X015300Y044387D01*
X015353Y044333D01*
X015460Y044333D01*
X015300Y044179D02*
X015300Y043965D01*
X015300Y044072D02*
X015620Y044072D01*
X015514Y043965D01*
X015300Y043810D02*
X015300Y043597D01*
X015300Y043703D02*
X015620Y043703D01*
X015514Y043597D01*
X015567Y043442D02*
X015460Y043442D01*
X015407Y043389D01*
X015407Y043228D01*
X015300Y043228D02*
X015620Y043228D01*
X015620Y043389D01*
X015567Y043442D01*
X015407Y043335D02*
X015300Y043442D01*
X015353Y043047D02*
X015300Y042993D01*
X015300Y042887D01*
X015353Y042833D01*
X015567Y043047D01*
X015353Y043047D01*
X015353Y042833D02*
X015567Y042833D01*
X015620Y042887D01*
X015620Y042993D01*
X015567Y043047D01*
X015300Y042679D02*
X015300Y042465D01*
X015300Y042572D02*
X015620Y042572D01*
X015514Y042465D01*
X015300Y042310D02*
X015300Y042097D01*
X015300Y042203D02*
X015620Y042203D01*
X015514Y042097D01*
X015567Y041942D02*
X015620Y041889D01*
X015620Y041782D01*
X015567Y041728D01*
X015353Y041728D01*
X015300Y041782D01*
X015300Y041889D01*
X015353Y041942D01*
X015057Y042035D02*
X014896Y042035D01*
X014843Y041982D01*
X014843Y041875D01*
X014896Y041822D01*
X015057Y041822D01*
X015057Y041715D02*
X015057Y042035D01*
X014950Y041822D02*
X014843Y041715D01*
X014688Y041715D02*
X014475Y041715D01*
X014582Y041715D02*
X014582Y042035D01*
X014688Y041929D01*
X014320Y041982D02*
X014267Y042035D01*
X014160Y042035D01*
X014106Y041982D01*
X014106Y041929D01*
X014320Y041715D01*
X014106Y041715D01*
X013952Y041768D02*
X013952Y041822D01*
X013898Y041875D01*
X013792Y041875D01*
X013738Y041822D01*
X013738Y041768D01*
X013792Y041715D01*
X013898Y041715D01*
X013952Y041768D01*
X013898Y041875D02*
X013952Y041929D01*
X013952Y041982D01*
X013898Y042035D01*
X013792Y042035D01*
X013738Y041982D01*
X013738Y041929D01*
X013792Y041875D01*
X013720Y041505D02*
X014990Y041505D01*
X015800Y042295D02*
X015800Y042555D01*
X016320Y042555D02*
X016320Y042295D01*
X016320Y043795D02*
X016320Y044055D01*
X015800Y044055D02*
X015800Y043795D01*
X014990Y040345D02*
X013720Y040345D01*
X013720Y039705D02*
X014990Y039705D01*
X014990Y038545D02*
X013720Y038545D01*
X013738Y038335D02*
X013845Y038282D01*
X013952Y038175D01*
X013792Y038175D01*
X013738Y038122D01*
X013738Y038068D01*
X013792Y038015D01*
X013898Y038015D01*
X013952Y038068D01*
X013952Y038175D01*
X014106Y038229D02*
X014106Y038282D01*
X014160Y038335D01*
X014267Y038335D01*
X014320Y038282D01*
X014106Y038229D02*
X014320Y038015D01*
X014106Y038015D01*
X014475Y038015D02*
X014688Y038015D01*
X014582Y038015D02*
X014582Y038335D01*
X014688Y038229D01*
X014843Y038282D02*
X014843Y038175D01*
X014896Y038122D01*
X015057Y038122D01*
X015057Y038015D02*
X015057Y038335D01*
X014896Y038335D01*
X014843Y038282D01*
X014950Y038122D02*
X014843Y038015D01*
X024000Y042195D02*
X024000Y042455D01*
X024520Y042455D02*
X024520Y042195D01*
X024000Y043695D02*
X024000Y043955D01*
X020600Y018947D02*
X020600Y018733D01*
X020600Y018840D02*
X020920Y018840D01*
X020814Y018733D01*
X020867Y018579D02*
X020653Y018365D01*
X020600Y018418D01*
X020600Y018525D01*
X020653Y018579D01*
X020867Y018579D01*
X020920Y018525D01*
X020920Y018418D01*
X020867Y018365D01*
X020653Y018365D01*
X020600Y018210D02*
X020600Y017997D01*
X020600Y018103D02*
X020920Y018103D01*
X020814Y017997D01*
X020867Y017842D02*
X020760Y017842D01*
X020707Y017789D01*
X020707Y017628D01*
X020600Y017628D02*
X020920Y017628D01*
X020920Y017789D01*
X020867Y017842D01*
X020707Y017735D02*
X020600Y017842D01*
X020420Y018195D02*
X020420Y018455D01*
X019900Y018455D02*
X019900Y018195D01*
X040240Y015373D02*
X040240Y013877D01*
X043680Y013877D02*
X043680Y015373D01*
D11*
X043460Y015629D03*
X042960Y015629D03*
X042460Y015629D03*
X041960Y015629D03*
X041460Y015629D03*
X040960Y015629D03*
X040460Y015629D03*
X040460Y013621D03*
X040960Y013621D03*
X041460Y013621D03*
X041960Y013621D03*
X042460Y013621D03*
X042960Y013621D03*
X043460Y013621D03*
M02*
