G75*
%MOIN*%
%OFA0B0*%
%FSLAX24Y24*%
%IPPOS*%
%LPD*%
%AMOC8*
5,1,8,0,0,1.08239X$1,22.5*
%
%ADD10C,0.0120*%
%ADD11C,0.0000*%
D10*
X000160Y005625D02*
X000160Y065625D01*
X060160Y065625D01*
X060160Y005625D01*
X000160Y005625D01*
D11*
X039904Y046275D02*
X039906Y046306D01*
X039912Y046337D01*
X039921Y046367D01*
X039934Y046396D01*
X039951Y046423D01*
X039971Y046447D01*
X039993Y046469D01*
X040019Y046488D01*
X040046Y046504D01*
X040075Y046516D01*
X040105Y046525D01*
X040136Y046530D01*
X040168Y046531D01*
X040199Y046528D01*
X040230Y046521D01*
X040260Y046511D01*
X040288Y046497D01*
X040314Y046479D01*
X040338Y046459D01*
X040359Y046435D01*
X040378Y046410D01*
X040393Y046382D01*
X040404Y046353D01*
X040412Y046322D01*
X040416Y046291D01*
X040416Y046259D01*
X040412Y046228D01*
X040404Y046197D01*
X040393Y046168D01*
X040378Y046140D01*
X040359Y046115D01*
X040338Y046091D01*
X040314Y046071D01*
X040288Y046053D01*
X040260Y046039D01*
X040230Y046029D01*
X040199Y046022D01*
X040168Y046019D01*
X040136Y046020D01*
X040105Y046025D01*
X040075Y046034D01*
X040046Y046046D01*
X040019Y046062D01*
X039993Y046081D01*
X039971Y046103D01*
X039951Y046127D01*
X039934Y046154D01*
X039921Y046183D01*
X039912Y046213D01*
X039906Y046244D01*
X039904Y046275D01*
M02*
